# xmcd
#
# Track frame offsets:
#	150
#	23094
#	46571
#	72518
#	97924
#	124876
#	152780
#	180255
#	207380
#	234759
#
# Disc length: 3482 seconds
#
# Revision: 1
# Processed by: cddbd v1.5.2PL0 Copyright (c) Steve Scherf et al.
# Submitted via: EZCDAudioConverter 8.0.2.1
#
DISCID=740d980a
DTITLE=Mạnh Quỳnh - st. Mạnh Quỳnh. Kẻ Sầu Đời
DYEAR=2007
DGENRE=
TTITLE0=Bạc tình ca
TTITLE1=Tôi vẫn yêu em
TTITLE2=Kẻ Sầu Đời
TTITLE3=Nỗi đau tình phụ
TTITLE4=Lời cuối cho em
TTITLE5=Hãy khóc đi em
TTITLE6=Tủi thân
TTITLE7=Trọn mối tình si
TTITLE8=Vì tôi nghèo
TTITLE9=Tâm sự người hát nhạc buồn
EXTD=
EXTT0=
EXTT1=
EXTT2=
EXTT3=
EXTT4=
EXTT5=
EXTT6=
EXTT7=
EXTT8=
EXTT9=
PLAYORDER=
